PathFileType	4	(X/Y/Z)	G:\TennisProject\Miami_Dimitrov_Sinner_masked_Sports2D\Miami_Dimitrov_Sinner_masked_Sports2D_px_person00.trc
DataRate	CameraRate	NumFrames	NumMarkers	Units	OrigDataRate	OrigDataStartFrame	OrigNumFrames
25	25	8	22	m	25	124	499
Frame#	Time	Hip			RHip			RKnee			RAnkle			RBigToe			RSmallToe			RHeel			LHip			LKnee			LAnkle			LBigToe			LSmallToe			LHeel			Neck			Head			Nose			RShoulder			RElbow			RWrist			LShoulder			LElbow			LWrist		
		X1	Y1	Z1	X2	Y2	Z2	X3	Y3	Z3	X4	Y4	Z4	X5	Y5	Z5	X6	Y6	Z6	X7	Y7	Z7	X8	Y8	Z8	X9	Y9	Z9	X10	Y10	Z10	X11	Y11	Z11	X12	Y12	Z12	X13	Y13	Z13	X14	Y14	Z14	X15	Y15	Z15	X16	Y16	Z16	X17	Y17	Z17	X18	Y18	Z18	X19	Y19	Z19	X20	Y20	Z20	X21	Y21	Z21	X22	Y22	Z22
124	4.96	1068.5319786546838	252.26544785092824	0.0	1061.474962330151	252.4759145369705	0.0	1048.1935194924317	271.2569921851997	0.0	1045.8832589154513	295.4338824804654	0.0	1038.9917995998148	299.83576372879236	0.0	1037.8905817573489	298.30096445973425	0.0	1047.8921091082887	298.8834403612611	0.0	1076.1152673474442	252.91756943598364	0.0	1084.289245557745	275.0873794897234	0.0	1103.0030941516668	296.83197693708536	0.0	1103.838434623641	304.42573292075303	0.0	1107.20477566492	302.60444078789374	0.0	1105.0934907095193	299.1433569875183	0.0	1062.4760359296686	227.36792343485558	0.0	1060.8946807955138	212.32878673363857	0.0	1061.206817559381	220.57598273133414	0.0	1052.8485949192386	230.88732593083225	0.0	1048.3219625893678	244.80166478702264	0.0	1053.5309928489717	256.6636831772918	0.0	1073.7060586143152	229.89276350528652	0.0	1080.3850331508227	247.08833380967667	0.0	1068.960689242979	257.8989192814746	0.0
125	5.0	1070.4145350517126	254.77196556401984	0.0	1063.1901954225164	254.74592027069386	0.0	1048.0327817030015	271.5452493937089	0.0	1045.9865077967256	295.7633421419323	0.0	1037.4478237102435	299.65688712509063	0.0	1037.1013200338882	298.122385575718	0.0	1048.3896989287325	299.0898350617364	0.0	1077.94423077278	255.17531574610845	0.0	1085.1889372898934	277.50634138579846	0.0	1104.7777582711278	298.3102660005552	0.0	1105.1372676266292	305.3536967287615	0.0	1108.6972092653032	303.5400902379933	0.0	1107.2851097106477	300.7389767978266	0.0	1062.9600501111213	231.1731426753975	0.0	1061.3608245702856	216.29704027536945	0.0	1061.4879937481342	224.46572160904992	0.0	1053.6861191435669	234.52684800057108	0.0	1050.620112294081	247.83984371961805	0.0	1053.70547756747	258.5380276381513	0.0	1074.046146401847	234.07115910449915	0.0	1080.485279435209	251.4130943581792	0.0	1067.8413451165372	260.66065299330575	0.0
126	5.04	1071.0263257887086	256.1714464082622	0.0	1063.7090890412574	256.3217849511709	0.0	1046.5916257413328	270.78853540746263	0.0	1046.745966006742	295.75598360536566	0.0	1037.7938864393973	299.35219352550104	0.0	1037.6911558688116	297.8828677530294	0.0	1049.4445486553286	298.8383705796058	0.0	1078.4005936829478	256.63995445812816	0.0	1085.0461889383932	279.250576780826	0.0	1105.0122776350788	298.74456625676265	0.0	1105.3053786952141	305.4502854319433	0.0	1108.88647810598	303.6626274070488	0.0	1107.7477370709357	301.15019382533865	0.0	1061.8669835328285	233.23153126171738	0.0	1059.9476918150804	217.89172040926212	0.0	1059.9105167300531	226.0385322137216	0.0	1052.9574902256882	236.27352184371733	0.0	1051.5161523438378	249.52352052596672	0.0	1052.3376350085193	259.1373684526436	0.0	1072.4425596051851	236.2832321940537	0.0	1078.0719397857556	253.60058920329323	0.0	1065.0652647951283	262.23545675976334	0.0
127	5.08	1069.8859842836162	256.65784005901713	0.0	1062.404096415267	256.8997373735209	0.0	1043.8705501762304	270.08906403845765	0.0	1049.3007384170255	295.27678052559935	0.0	1040.6803900594962	299.4514677799592	0.0	1040.6006595011895	297.8205480611801	0.0	1052.326913898747	298.1360583968147	0.0	1077.012184913605	257.2906987954813	0.0	1084.5547086250758	280.1540173949939	0.0	1105.3137492175729	298.9737920312374	0.0	1105.3238610139451	305.4996087347012	0.0	1108.7193893838798	303.5745931401556	0.0	1107.9301901356107	300.9757851409039	0.0	1058.9692703874387	233.25452627453575	0.0	1056.62605851852	218.4377006879632	0.0	1056.5842603391536	225.88361227872414	0.0	1050.499851347656	235.76969829287427	0.0	1050.2376465544846	249.03297779325524	0.0	1047.299637551518	257.89255608412736	0.0	1068.8527350508955	236.42696086563578	0.0	1073.5399163880393	253.71137789725765	0.0	1060.7893496926547	260.8057145940677	0.0
128	5.12	1066.80633184306	256.4271529817702	0.0	1059.119676553786	256.70169108404946	0.0	1040.2431531909826	270.6142168261846	0.0	1052.999685977964	293.830021885631	0.0	1045.3070582494656	299.7559015309113	0.0	1045.3189344332163	297.866220036443	0.0	1056.448248277396	296.37056256372796	0.0	1073.745115461859	257.09313327532004	0.0	1083.1950919057094	280.01061967180453	0.0	1105.9314116831508	298.8012292456759	0.0	1105.559322766602	305.5136908108485	0.0	1109.0056374993928	303.6697843037553	0.0	1108.6055354641358	300.2621002157837	0.0	1054.5267174829464	231.52952419901055	0.0	1051.8101088745175	217.71726554507933	0.0	1051.6229964678382	224.54203871245798	0.0	1046.6178600201163	233.88269654947572	0.0	1046.9830002059832	247.01936842256322	0.0	1039.837354435928	255.35318713755478	0.0	1063.8885803505852	235.27486056941652	0.0	1067.7737070291873	252.81048210545296	0.0	1054.2920552855123	257.08668936054767	0.0
129	5.16	1062.201602023436	255.58313196475234	0.0	1054.718690686533	256.35403818590885	0.0	1037.5187263385533	272.63252863878944	0.0	1056.6996898155894	292.16307210612047	0.0	1051.0824418051604	300.1424064537207	0.0	1050.8766710053123	298.0432443196001	0.0	1060.6074713673827	294.31558025073303	0.0	1068.8830825884415	256.2480007502818	0.0	1079.704799535076	279.02883424247443	0.0	1105.2492449382719	297.43030423148673	0.0	1105.275730715882	304.8380714317129	0.0	1108.8249395105586	303.42089326827215	0.0	1108.3505586648505	298.3930481597914	0.0	1049.0146754290795	228.73871499300805	0.0	1046.0169607237613	215.6178402019303	0.0	1045.3183571688724	222.21656916259812	0.0	1041.7848526769876	231.56110371114573	0.0	1042.6852320563733	244.76209984630336	0.0	1033.4054324662102	252.63238987990695	0.0	1058.0462600893045	233.3145836712225	0.0	1061.3493601174891	251.2937125074701	0.0	1046.4720607490758	253.50676668149936	0.0
130	5.2	1057.1163011070462	254.4162060775942	0.0	1050.6215851361685	256.11276527364384	0.0	1037.9114563350772	275.58183710627844	0.0	1060.7969439364422	291.9305653361302	0.0	1057.1293534751037	300.7242310066077	0.0	1056.5726706342857	298.74373844461957	0.0	1065.0863702702495	294.01643517869206	0.0	1063.0067021236534	255.19952328630345	0.0	1072.5495772186193	278.31964980991415	0.0	1100.5687440572597	294.43452476221796	0.0	1102.0921314901789	302.93665222293725	0.0	1104.7305953893615	301.6520886625834	0.0	1103.9175961119854	294.9056412096953	0.0	1042.837928193238	226.0610492040878	0.0	1039.5328159251167	213.37681900060048	0.0	1038.363946526029	219.71026700313354	0.0	1036.3991150873478	229.3308027516083	0.0	1037.813195402964	242.7507213264097	0.0	1028.858356378015	250.45350761649365	0.0	1051.660178598711	231.07687962580601	0.0	1054.7272859496863	249.38899867004613	0.0	1039.0476811949748	251.59647916288034	0.0
131	5.24	1052.4713829063637	253.3967376525268	0.0	1047.611056648434	255.49804281811907	0.0	1040.8877669988428	278.12520902509215	0.0	1065.2643503669376	293.3337270628448	0.0	1061.6952560259083	301.207157489083	0.0	1061.2141236067914	300.060336770226	0.0	1069.8643784526416	295.47845297908304	0.0	1056.801323832671	254.23981823974356	0.0	1061.189718418856	278.8217487685685	0.0	1090.4796966935164	290.7617004539897	0.0	1093.7807453564342	300.31113289642457	0.0	1094.9482001494694	298.37295613115293	0.0	1093.9227085598225	290.7970040494334	0.0	1036.3846652795148	224.64818562834864	0.0	1032.6588208894145	211.55226359905546	0.0	1031.7093200401014	218.01191441316405	0.0	1030.6338145196723	227.82912597422137	0.0	1032.0780564138981	241.191153791573	0.0	1024.7196879613011	249.05803377572013	0.0	1045.1909419098395	229.49933343307669	0.0	1048.3275536570084	248.23821813943	0.0	1032.3533550349384	251.28768095025328	0.0
